<svg width="955" height="1067" viewBox="0 0 955 1067" fill="none" xmlns="http://www.w3.org/2000/svg">
<g clip-path="url(#clip0_2962_209)">
<path d="M458.669 1043.89C467.869 1056.1 475.939 1066.07 476.609 1066.06C478.909 1066.02 482.079 1062.56 490.349 1051.08C494.909 1044.76 502.039 1035.3 506.199 1030.08C518.299 1014.87 572.859 950.481 582.499 940.021C599.659 921.431 625.389 899.371 654.769 878.061C690.629 852.061 715.179 829.871 729.449 810.581C733.699 804.821 740.819 792.942 746.209 782.582C768.969 738.872 780.069 719.462 796.989 693.822C836.189 634.402 885.149 583.262 942.329 542.002C955.099 532.782 955.329 532.552 953.119 531.082C945.699 526.162 916.079 503.332 905.409 494.322C889.149 480.592 854.639 446.072 841.199 430.082C805.299 387.392 782.049 351.722 751.899 293.072C734.839 259.882 726.539 248.132 706.649 229.032C692.549 215.482 682.469 207.382 646.999 181.112C619.619 160.832 591.619 135.192 568.069 108.832C545.669 83.752 503.619 32.2921 487.779 10.5421C482.819 3.73207 480.229 0.112071 477.509 0.00207096C474.479 -0.107929 471.289 4.16207 464.459 13.3021L464.069 13.8321C445.679 38.4321 383.439 112.952 368.399 128.372C346.089 151.252 327.259 167.182 293.709 191.572C264.029 213.142 246.009 229.122 230.519 247.582C219.749 260.422 214.069 269.622 201.519 294.582C167.049 363.162 129.989 415.512 81.8786 463.632C57.8786 487.622 39.9186 503.032 14.3286 521.582C6.89863 526.972 0.478627 531.682 0.0486273 532.062C-0.381373 532.442 2.08863 534.702 5.54863 537.092C31.5386 555.102 56.7986 576.422 81.8686 601.512C130.829 650.532 166.169 700.542 202.719 772.502C214.909 796.522 220.479 805.421 231.719 818.821C245.699 835.501 263.229 851.132 289.209 870.091C308.899 884.451 325.829 897.681 338.329 908.471C369.749 935.581 417.609 989.451 458.669 1043.89ZM487.689 1023.16C485.219 1024.69 482.049 1025.58 478.389 1025.77C468.479 1026.29 465.339 1023.95 452.189 1006.28C439.869 989.731 426.909 973.531 406.929 949.681C367.179 902.251 348.539 884.421 303.959 851.141C269.479 825.411 253.749 811.062 239.709 792.552C230.669 780.632 227.329 775.011 215.459 751.792C202.969 727.342 192.299 708.542 181.619 692.162C144.499 635.242 101.379 589.772 49.5486 552.902C36.8086 543.842 34.3286 540.462 34.3286 532.152C34.3286 523.672 36.3086 521.092 50.9286 510.492C122.739 458.452 174.579 395.312 218.689 306.192C233.469 276.302 251.279 254.792 281.329 230.512C285.449 227.172 298.729 216.982 310.829 207.872C337.879 187.482 349.099 178.132 362.499 164.802C375.229 152.122 431.109 85.792 448.599 62.582C455.649 53.232 463.239 44.2321 465.469 42.5821C469.149 39.8621 470.239 39.5821 477.249 39.5821C483.729 39.5821 485.529 39.9621 488.399 41.9321C490.289 43.2321 497.229 51.502 503.829 60.312C530.159 95.492 565.939 137.702 589.319 161.152C608.919 180.832 621.309 191.412 648.329 211.572C697.699 248.422 715.569 267.322 732.499 300.582C769.589 373.432 801.049 418.192 846.129 462.232C863.529 479.242 875.849 489.822 893.829 503.232C900.429 508.152 908.219 513.982 911.149 516.182C919.899 522.752 922.539 531.882 918.269 540.712C916.619 544.122 913.759 546.712 904.019 553.672C853.219 589.932 811.079 633.962 775.839 687.582C762.129 708.452 754.359 721.921 740.209 749.391C726.079 776.841 720.379 785.952 708.459 800.202C694.939 816.362 677.569 831.681 650.829 851.021C612.709 878.591 585.039 904.711 551.169 945.101C530.849 969.331 514.879 989.281 503.049 1005.21C495.699 1015.11 490.059 1021.7 487.689 1023.16ZM458.579 968.831C468.519 981.621 476.919 992.081 477.249 992.081C477.579 992.081 478.369 991.251 478.999 990.241C479.629 989.231 489.119 977.191 500.089 963.491C553.409 896.881 585.519 864.201 628.219 833.071C650.729 816.671 661.959 807.552 673.659 796.152C693.159 777.162 699.069 768.782 714.689 737.922C737.469 692.932 762.199 654.812 790.809 620.612C814.799 591.942 846.369 561.852 875.829 539.592C880.779 535.852 884.919 532.522 885.029 532.182C885.139 531.852 880.859 528.352 875.529 524.412C830.009 490.762 785.689 443.052 752.049 391.502C736.209 367.212 725.489 348.392 710.559 318.582C700.069 297.652 692.739 287.482 676.339 271.072C662.579 257.312 656.619 252.412 624.829 228.752C614.929 221.382 601.769 210.982 595.579 205.652C566.229 180.342 531.689 142.052 493.329 92.302C484.809 81.252 477.529 72.282 477.159 72.392C476.789 72.492 470.509 80.232 463.199 89.582C441.589 117.252 396.909 169.622 383.389 183.132C368.849 197.662 355.579 208.872 328.329 229.612C291.129 257.942 276.329 270.892 264.389 285.582C255.479 296.532 252.799 300.912 242.089 321.922C211.319 382.342 182.199 424.962 143.019 466.952C124.259 487.062 97.5586 510.992 77.6086 525.582C73.0886 528.882 69.4986 531.852 69.6186 532.182C69.7286 532.522 73.8786 535.852 78.8286 539.582C104.959 559.322 141.819 594.402 162.309 619.062C192.659 655.562 218.189 695.112 242.289 742.961C254.709 767.601 261.919 777.542 280.459 795.582C293.359 808.122 300.749 814.122 330.829 836.461C373.449 868.101 408.679 904.611 458.579 968.831ZM400.719 770.332C401.519 774.662 401.439 775.062 399.719 774.862C398.679 774.742 391.639 774.502 384.079 774.332C374.059 774.112 370.339 773.692 370.369 772.802C370.379 772.132 371.039 768.662 371.829 765.082C373.019 759.662 373.249 740.592 373.209 650.082C373.179 590.412 372.839 539.002 372.439 535.842C371.899 531.452 371.039 529.392 368.809 527.062C365.199 523.292 357.039 520.732 351.099 521.512C348.399 521.862 345.719 521.552 343.829 520.662C341.009 519.332 341.469 519.232 351.329 519.072C357.099 518.982 363.979 518.612 366.609 518.242L371.389 517.582L367.209 512.082C358.459 500.552 354.019 486.922 354.029 471.582C354.039 459.672 356.069 450.422 360.839 440.502C372.719 415.792 397.039 399.832 431.329 394.222C436.869 393.312 441.429 392.122 441.449 391.582C441.469 391.032 437.739 382.322 433.159 372.222C420.479 344.272 416.189 340.372 396.659 339.032C390.509 338.612 384.669 337.812 383.679 337.262C382.449 336.572 391.809 336.152 413.859 335.902C431.439 335.712 445.969 335.622 446.149 335.712C446.319 335.812 447.039 338.292 447.739 341.232C449.139 347.052 530.159 522.082 531.459 522.082C531.899 522.082 532.829 520.172 533.539 517.832C535.559 511.182 534.779 355.102 532.709 350.142C529.759 343.072 524.199 339.112 517.129 339.032C514.759 339.012 511.479 338.412 509.829 337.692C507.219 336.562 510.109 336.302 532.149 335.642C546.069 335.222 557.699 335.112 557.979 335.402C558.259 335.682 558.929 339.212 559.469 343.242C560.009 347.282 560.759 352.712 561.139 355.312L561.829 360.032L583.769 346.392C595.839 338.882 605.879 333.242 606.089 333.852C607.319 337.542 612.779 343.132 617.429 345.442C626.439 349.932 635.059 348.282 642.279 340.702C644.169 338.712 646.119 337.082 646.609 337.082C647.839 337.082 646.509 344.462 644.139 350.822C641.669 357.462 634.769 366.692 628.789 371.352L624.169 374.952L619.499 371.362C609.469 363.672 598.779 360.502 585.829 361.372C577.209 361.952 571.409 363.672 564.549 367.692L560.209 370.232L560.619 442.912C560.899 492.142 561.399 517.192 562.169 520.582C562.789 523.332 563.539 526.602 563.839 527.842L564.379 530.112L500.829 529.582L500.199 522.482C499.669 516.612 498.459 513.032 493.199 501.752C489.689 494.252 486.579 488.112 486.279 488.102C485.979 488.092 484.689 490.222 483.429 492.832C475.819 508.542 460.859 522.682 444.779 529.362C434.459 533.642 428.739 534.592 414.029 534.462C401.829 534.362 400.269 534.532 400.549 535.962C400.829 537.432 408.279 537.602 483.019 537.842L565.169 538.092L566.879 543.342C567.809 546.222 587.649 589.712 610.969 639.992C634.279 690.262 653.229 731.492 653.089 731.622C652.949 731.742 645.579 732.162 636.719 732.552L620.609 733.262L619.919 727.192C619.539 723.862 618.529 718.762 617.669 715.872C615.869 709.802 606.689 691.082 605.519 691.082C605.079 691.082 603.689 693.222 602.429 695.832C594.029 713.182 578.129 727.012 558.829 733.762C551.439 736.352 549.719 736.562 536.329 736.512C523.309 736.462 521.079 736.182 514.499 733.842C510.459 732.402 504.679 729.732 501.639 727.902C494.159 723.392 485.019 713.412 480.899 705.222C475.039 693.592 473.869 688.192 473.909 673.082C473.939 661.212 474.269 658.622 476.599 651.582C486.199 622.652 513.109 602.452 549.869 596.552C555.349 595.682 560.179 594.612 560.609 594.192C561.039 593.762 557.269 584.552 552.219 573.722C542.229 552.272 538.839 547.592 530.489 543.732C525.899 541.612 524.899 541.582 463.239 541.302L400.649 541.022L399.989 570.302C399.019 613.522 399.159 655.082 400.289 655.082C401.629 655.082 424.299 634.042 433.489 624.252C447.419 609.442 458.149 592.892 459.899 583.542L460.549 580.082H476.289C484.939 580.082 496.159 580.372 501.219 580.732L510.419 581.392L501.619 586.042C496.789 588.592 490.269 592.332 487.139 594.332C479.359 599.322 460.339 616.222 439.609 636.582L422.299 653.582L450.949 697.082C493.299 761.382 494.289 762.522 513.079 769.592C517.759 771.352 521.179 773.062 520.659 773.382C520.139 773.702 508.599 774.042 495.009 774.152L470.289 774.342L465.519 766.462C462.899 762.132 447.769 738.872 431.899 714.782C411.289 683.492 402.599 671.072 401.439 671.302C399.989 671.582 399.829 676.152 399.839 718.592C399.839 744.442 400.239 767.722 400.719 770.332ZM410.279 515.192C417.209 517.412 430.539 517.592 439.079 515.582C446.869 513.742 457.209 508.592 464.029 503.142C469.659 498.642 477.399 488.992 480.559 482.532L482.529 478.482L446.069 400.102L441.949 400.692C412.769 404.842 392.189 418.122 382.429 439.092C378.109 448.362 376.329 456.252 376.329 466.082C376.329 490.742 388.389 508.192 410.279 515.192ZM533.389 718.582C544.809 721.162 559.729 718.962 572.099 712.872C583.039 707.492 598.869 690.752 600.979 682.332C601.409 680.632 596.759 669.642 583.729 641.542L565.889 603.082H562.669C557.579 603.082 545.729 605.862 538.529 608.732C511.209 619.662 496.149 640.872 496.029 668.582C495.979 679.692 497.539 686.592 502.089 695.352C508.189 707.122 519.369 715.422 533.389 718.582ZM531.779 281.612C532.809 283.532 533.459 285.282 533.229 285.512C532.999 285.752 530.789 284.472 528.319 282.682C525.849 280.892 520.519 278.422 516.479 277.192C502.599 272.982 497.159 264.222 502.229 254.272C505.329 248.202 508.409 246.562 516.459 246.702C523.839 246.832 524.289 246.412 524.319 239.402C524.329 237.062 523.789 236.042 522.289 235.572C518.979 234.522 512.479 236.082 509.409 238.672L506.549 241.072L503.019 237.162C501.079 235.012 498.989 232.322 498.379 231.172L497.259 229.082H524.759C551.749 229.082 552.289 229.122 554.289 231.272C555.409 232.472 556.329 234.032 556.329 234.732C556.329 236.132 552.249 240.302 551.379 239.792C545.289 236.262 540.639 234.902 537.429 235.702C534.369 236.472 533.799 237.092 533.089 240.542C531.909 246.262 532.539 247.082 538.149 247.082C543.829 247.082 548.519 249.752 552.059 255.002C554.999 259.372 554.929 263.572 551.779 271.432L549.229 277.802L551.379 281.442C552.559 283.442 553.099 285.082 552.579 285.082C550.939 285.082 543.479 279.242 541.759 276.612C540.199 274.232 540.249 273.762 542.719 267.582C544.159 263.992 545.329 259.262 545.329 257.072C545.329 253.362 545.129 253.082 542.519 253.082C537.669 253.082 532.329 260.132 532.329 266.532C532.329 267.922 531.779 271.092 531.119 273.592C530.049 277.582 530.129 278.552 531.779 281.612ZM460.409 281.972C461.659 283.672 462.469 285.282 462.199 285.542C461.559 286.182 457.659 283.552 453.579 279.732C449.949 276.332 449.639 274.282 451.829 268.082C452.659 265.742 453.329 262.092 453.329 259.952V256.082H448.479C445.809 256.082 442.259 256.562 440.589 257.142L437.549 258.202L440.939 263.242C442.889 266.142 444.329 269.532 444.329 271.232C444.329 277.912 438.979 283.082 432.079 283.082C427.029 283.082 418.599 278.432 415.239 273.792C410.119 266.732 412.419 265.792 418.999 272.252C422.089 275.282 424.069 276.412 426.269 276.412C431.639 276.412 437.009 269.442 435.809 264.012C435.059 260.572 433.619 260.382 428.449 263.022C424.689 264.942 424.619 264.932 421.459 263.012C419.699 261.942 417.979 260.332 417.629 259.422C416.759 257.162 420.359 254.422 425.269 253.592C429.599 252.862 429.659 252.742 430.899 241.832C431.559 236.082 431.559 236.082 428.849 236.082C427.359 236.082 424.929 236.942 423.459 237.992L420.779 239.902L412.079 229.582L424.949 229.292C437.289 229.022 437.909 229.102 439.669 231.272C441.519 233.542 441.529 234.622 439.709 244.732C439.159 247.822 439.229 247.892 444.289 248.982C453.119 250.872 453.329 250.782 453.329 245.022C453.329 240.782 452.759 239.222 449.829 235.382C447.909 232.862 446.329 230.412 446.329 229.942C446.329 229.472 449.229 229.082 452.769 229.082C458.119 229.082 459.689 229.492 461.989 231.462C464.489 233.622 464.639 234.102 463.539 236.512C462.769 238.202 462.329 244.402 462.329 253.542C462.329 265.722 462.009 268.732 460.229 273.392L458.129 278.892L460.409 281.972ZM164.419 551.532C157.029 555.352 147.889 553.902 141.589 547.902C137.109 543.652 135.329 539.422 135.329 533.082C135.329 526.572 137.139 522.332 141.599 518.422C151.649 509.592 167.769 512.102 173.209 523.332C175.469 528.002 176.029 536.102 174.399 540.402C173.129 543.732 167.619 549.882 164.419 551.532ZM808.049 550.502C799.559 555.482 790.849 554.472 783.819 547.702C773.139 537.412 776.119 520.252 789.559 514.632C794.939 512.382 802.079 512.662 807.359 515.332C820.799 522.132 821.209 542.792 808.049 550.502ZM487.789 906.701C479.589 911.111 472.039 910.221 464.999 904.021C459.919 899.541 457.949 894.951 458.109 887.901C458.479 871.181 478.939 862.892 491.849 874.232C501.799 882.972 499.629 900.341 487.789 906.701ZM490.439 282.332C496.799 290.132 487.299 284.072 478.539 274.752C473.559 269.442 468.359 260.432 468.339 257.052C468.309 251.792 474.439 249.532 480.389 252.612C483.279 254.102 483.379 254.072 484.379 251.442C484.949 249.952 485.279 245.642 485.119 241.862L484.829 234.992L479.849 237.522L474.869 240.042L471.019 236.312L471.009 236.292C467.629 233.022 465.789 231.242 466.139 230.262C466.579 229.082 470.219 229.082 478.259 229.082H478.289C490.199 229.082 491.509 229.262 493.429 231.182C494.929 232.682 495.359 234.032 494.949 235.932C494.629 237.392 494.099 242.852 493.759 248.082C493.429 253.312 492.709 259.022 492.179 260.782C491.139 264.212 485.209 270.082 482.799 270.082C480.669 270.082 481.009 271.142 484.379 275.082C486.029 277.002 488.749 280.272 490.439 282.332ZM509.669 269.532C510.469 271.622 512.629 271.482 517.449 269.022C523.369 266.002 526.219 258.042 522.959 253.592C521.689 251.862 521.289 251.822 517.819 253.152C515.739 253.942 513.179 255.752 512.109 257.172C510.069 259.912 508.679 266.942 509.669 269.532ZM492.509 294.022C497.529 298.482 496.279 300.102 490.749 296.302C486.659 293.502 480.629 292.772 475.219 294.422C472.969 295.122 472.339 294.782 470.529 291.932C467.949 287.862 468.819 287.122 476.179 287.102C482.449 287.082 486.739 288.902 492.509 294.022Z" fill="#010101"/>
<path d="M128.649 665.572C112.519 644.482 95.149 624.562 76.959 606.262C95.119 624.482 112.389 644.222 127.989 664.712C128.209 665.002 128.429 665.282 128.649 665.572ZM167.329 722.432C165.779 719.872 164.189 717.272 162.519 714.582C156.309 704.582 149.779 694.742 142.989 685.102C151.659 697.362 159.559 709.462 167.329 722.432Z" fill="#505050"/>
<path d="M458.669 1043.89C417.609 989.451 369.749 935.581 338.329 908.471C325.829 897.681 308.899 884.451 289.209 870.091C263.229 851.132 245.699 835.501 231.719 818.821C220.479 805.421 214.909 796.522 202.719 772.502C166.169 700.542 130.829 650.532 81.8686 601.512C56.7986 576.422 31.5386 555.102 5.54863 537.092C2.08863 534.702 -0.381373 532.442 0.0486273 532.062C0.478627 531.682 6.89863 526.972 14.3286 521.582C39.9186 503.032 57.8786 487.622 81.8786 463.632C129.989 415.512 167.049 363.162 201.519 294.582C214.069 269.622 219.749 260.422 230.519 247.582C246.009 229.122 264.029 213.142 293.709 191.572C327.259 167.182 346.089 151.252 368.399 128.372C383.439 112.952 445.679 38.4321 464.069 13.8321C477.419 -4.03791 477.179 -3.9979 487.779 10.5421C503.619 32.2921 545.669 83.752 568.069 108.832C591.619 135.192 619.619 160.832 646.999 181.112C682.469 207.382 692.549 215.482 706.649 229.032C726.539 248.132 734.839 259.882 751.899 293.072C782.049 351.722 805.299 387.392 841.199 430.082C854.639 446.072 889.149 480.592 905.409 494.322C916.079 503.332 945.699 526.162 953.119 531.082C955.329 532.552 955.099 532.782 942.329 542.002C885.149 583.262 836.189 634.402 796.989 693.822C780.069 719.462 768.969 738.872 746.209 782.582C740.819 792.942 733.699 804.821 729.449 810.581C715.179 829.871 690.629 852.061 654.769 878.061C625.389 899.371 599.659 921.431 582.499 940.021C572.859 950.481 518.299 1014.87 506.199 1030.08C502.039 1035.3 494.909 1044.76 490.349 1051.08C482.079 1062.56 478.909 1066.02 476.609 1066.06C475.939 1066.07 467.869 1056.1 458.669 1043.89ZM487.689 1023.16C490.059 1021.7 495.699 1015.11 503.049 1005.21C514.879 989.281 530.849 969.331 551.169 945.101C585.039 904.711 612.709 878.591 650.829 851.021C677.569 831.681 694.939 816.362 708.459 800.202C720.379 785.952 726.079 776.841 740.209 749.391C754.359 721.921 762.129 708.452 775.839 687.582C811.079 633.962 853.219 589.932 904.019 553.672C913.759 546.712 916.619 544.122 918.269 540.712C922.539 531.882 919.899 522.752 911.149 516.182C908.219 513.982 900.429 508.152 893.829 503.232C875.849 489.822 863.529 479.242 846.129 462.232C801.049 418.192 769.589 373.432 732.499 300.582C715.569 267.322 697.699 248.422 648.329 211.572C621.309 191.412 608.919 180.832 589.319 161.152C565.939 137.702 530.159 95.492 503.829 60.312C497.229 51.502 490.289 43.2321 488.399 41.9321C485.529 39.9621 483.729 39.5821 477.249 39.5821C470.239 39.5821 469.149 39.8621 465.469 42.5821C463.239 44.2321 455.649 53.232 448.599 62.582C431.109 85.792 375.229 152.122 362.499 164.802C349.099 178.132 337.879 187.482 310.829 207.872C298.729 216.982 285.449 227.172 281.329 230.512C251.279 254.792 233.469 276.302 218.689 306.192C174.579 395.312 122.739 458.452 50.9286 510.492C36.3086 521.092 34.3286 523.672 34.3286 532.152C34.3286 540.462 36.8086 543.842 49.5486 552.902C101.379 589.772 144.499 635.242 181.619 692.162C192.299 708.542 202.969 727.342 215.459 751.792C227.329 775.011 230.669 780.632 239.709 792.552C253.749 811.062 269.479 825.411 303.959 851.141C348.539 884.421 367.179 902.251 406.929 949.681C426.909 973.531 439.869 989.731 452.189 1006.28C465.339 1023.95 468.479 1026.29 478.389 1025.77C482.049 1025.58 485.219 1024.69 487.689 1023.16ZM458.579 968.831C408.679 904.611 373.449 868.101 330.829 836.461C300.749 814.122 293.359 808.122 280.459 795.582C261.919 777.542 254.709 767.601 242.289 742.961C218.189 695.112 192.659 655.562 162.309 619.062C141.819 594.402 104.959 559.322 78.8286 539.582C73.8786 535.852 69.7286 532.522 69.6186 532.182C69.4986 531.852 73.0886 528.882 77.6086 525.582C97.5586 510.992 124.259 487.062 143.019 466.952C182.199 424.962 211.319 382.342 242.089 321.922C252.799 300.912 255.479 296.532 264.389 285.582C276.329 270.892 291.129 257.942 328.329 229.612C355.579 208.872 368.849 197.662 383.389 183.132C396.909 169.622 441.589 117.252 463.199 89.582C470.509 80.232 476.789 72.492 477.159 72.392C477.529 72.282 484.809 81.252 493.329 92.302C531.689 142.052 566.229 180.342 595.579 205.652C601.769 210.982 614.929 221.382 624.829 228.752C656.619 252.412 662.579 257.312 676.339 271.072C692.739 287.482 700.069 297.652 710.559 318.582C725.489 348.392 736.209 367.212 752.049 391.502C785.689 443.052 830.009 490.762 875.529 524.412C880.859 528.352 885.139 531.852 885.029 532.182C884.919 532.522 880.779 535.852 875.829 539.592C846.369 561.852 814.799 591.942 790.809 620.612C762.199 654.812 737.469 692.932 714.689 737.922C699.069 768.782 693.159 777.162 673.659 796.152C661.959 807.552 650.729 816.671 628.219 833.071C585.519 864.201 553.409 896.881 500.089 963.491C489.119 977.191 479.629 989.231 478.999 990.241C478.369 991.251 477.579 992.081 477.249 992.081C476.919 992.081 468.519 981.621 458.579 968.831ZM487.789 906.701C499.629 900.341 501.799 882.972 491.849 874.232C478.939 862.892 458.479 871.181 458.109 887.901C457.949 894.951 459.919 899.541 464.999 904.021C472.039 910.221 479.589 911.111 487.789 906.701ZM400.719 770.332C400.239 767.722 399.839 744.442 399.839 718.592C399.829 676.152 399.989 671.582 401.439 671.302C402.599 671.072 411.289 683.492 431.899 714.782C447.769 738.872 462.899 762.132 465.519 766.462L470.289 774.342L495.009 774.152C508.599 774.042 520.139 773.702 520.659 773.382C521.179 773.062 517.759 771.352 513.079 769.592C494.289 762.522 493.299 761.382 450.949 697.082L422.299 653.582L439.609 636.582C460.339 616.222 479.359 599.322 487.139 594.332C490.269 592.332 496.789 588.592 501.619 586.042L510.419 581.392L501.219 580.732C496.159 580.372 484.939 580.082 476.289 580.082H460.549L459.899 583.542C458.149 592.892 447.419 609.442 433.489 624.252C424.299 634.042 401.629 655.082 400.289 655.082C399.159 655.082 399.019 613.522 399.989 570.302L400.649 541.022L463.239 541.302C524.899 541.582 525.899 541.612 530.489 543.732C538.839 547.592 542.229 552.272 552.219 573.722C557.269 584.552 561.039 593.762 560.609 594.192C560.179 594.612 555.349 595.682 549.869 596.552C513.109 602.452 486.199 622.652 476.599 651.582C474.269 658.622 473.939 661.212 473.909 673.082C473.869 688.192 475.039 693.592 480.899 705.222C485.019 713.412 494.159 723.392 501.639 727.902C504.679 729.732 510.459 732.402 514.499 733.842C521.079 736.182 523.309 736.462 536.329 736.512C549.719 736.562 551.439 736.352 558.829 733.762C578.129 727.012 594.029 713.182 602.429 695.832C603.689 693.222 605.079 691.082 605.519 691.082C606.689 691.082 615.869 709.802 617.669 715.872C618.529 718.762 619.539 723.862 619.919 727.192L620.609 733.262L636.719 732.552C645.579 732.162 652.949 731.742 653.089 731.622C653.229 731.492 634.279 690.262 610.969 639.992C587.649 589.712 567.809 546.222 566.879 543.342L565.169 538.092L483.019 537.842C408.279 537.602 400.829 537.432 400.549 535.962C400.269 534.532 401.829 534.362 414.029 534.462C428.739 534.592 434.459 533.642 444.779 529.362C460.859 522.682 475.819 508.542 483.429 492.832C484.689 490.222 485.979 488.092 486.279 488.102C486.579 488.112 489.689 494.252 493.199 501.752C498.459 513.032 499.669 516.612 500.199 522.482L500.829 529.582L564.379 530.112L563.839 527.842C563.539 526.602 562.789 523.332 562.169 520.582C561.399 517.192 560.899 492.142 560.619 442.912L560.209 370.232L564.549 367.692C571.409 363.672 577.209 361.952 585.829 361.372C598.779 360.502 609.469 363.672 619.499 371.362L624.169 374.952L628.789 371.352C634.769 366.692 641.669 357.462 644.139 350.822C646.509 344.462 647.839 337.082 646.609 337.082C646.119 337.082 644.169 338.712 642.279 340.702C635.059 348.282 626.439 349.932 617.429 345.442C612.779 343.132 607.319 337.542 606.089 333.852C605.879 333.242 595.839 338.882 583.769 346.392L561.829 360.032L561.139 355.312C560.759 352.712 560.009 347.282 559.469 343.242C558.929 339.212 558.259 335.682 557.979 335.402C557.699 335.112 546.069 335.222 532.149 335.642C510.109 336.302 507.219 336.562 509.829 337.692C511.479 338.412 514.759 339.012 517.129 339.032C524.199 339.112 529.759 343.072 532.709 350.142C534.779 355.102 535.559 511.182 533.539 517.832C532.829 520.172 531.899 522.082 531.459 522.082C530.159 522.082 449.139 347.052 447.739 341.232C447.039 338.292 446.319 335.812 446.149 335.712C445.969 335.622 431.439 335.712 413.859 335.902C391.809 336.152 382.449 336.572 383.679 337.262C384.669 337.812 390.509 338.612 396.659 339.032C416.189 340.372 420.479 344.272 433.159 372.222C437.739 382.322 441.469 391.032 441.449 391.582C441.429 392.122 436.869 393.312 431.329 394.222C397.039 399.832 372.719 415.792 360.839 440.502C356.069 450.422 354.039 459.672 354.029 471.582C354.019 486.922 358.459 500.552 367.209 512.082L371.389 517.582L366.609 518.242C363.979 518.612 357.099 518.982 351.329 519.072C341.469 519.232 341.009 519.332 343.829 520.662C345.719 521.552 348.399 521.862 351.099 521.512C357.039 520.732 365.199 523.292 368.809 527.062C371.039 529.392 371.899 531.452 372.439 535.842C372.839 539.002 373.179 590.412 373.209 650.082C373.249 740.592 373.019 759.662 371.829 765.082C371.039 768.662 370.379 772.132 370.369 772.802C370.339 773.692 374.059 774.112 384.079 774.332C391.639 774.502 398.679 774.742 399.719 774.862C401.439 775.062 401.519 774.662 400.719 770.332ZM164.419 551.532C167.619 549.882 173.129 543.732 174.399 540.402C176.029 536.102 175.469 528.002 173.209 523.332C167.769 512.102 151.649 509.592 141.599 518.422C137.139 522.332 135.329 526.572 135.329 533.082C135.329 539.422 137.109 543.652 141.589 547.902C147.889 553.902 157.029 555.352 164.419 551.532ZM808.049 550.502C821.209 542.792 820.799 522.132 807.359 515.332C802.079 512.662 794.939 512.382 789.559 514.632C776.119 520.252 773.139 537.412 783.819 547.702C790.849 554.472 799.559 555.482 808.049 550.502ZM492.509 294.022C486.739 288.902 482.449 287.082 476.179 287.102C468.819 287.122 467.949 287.862 470.529 291.932C472.339 294.782 472.969 295.122 475.219 294.422C480.629 292.772 486.659 293.502 490.749 296.302C496.279 300.102 497.529 298.482 492.509 294.022ZM460.409 281.972L458.129 278.892L460.229 273.392C462.009 268.732 462.329 265.722 462.329 253.542C462.329 244.402 462.769 238.202 463.539 236.512C464.639 234.102 464.489 233.622 461.989 231.462C459.689 229.492 458.119 229.082 452.769 229.082C449.229 229.082 446.329 229.472 446.329 229.942C446.329 230.412 447.909 232.862 449.829 235.382C452.759 239.222 453.329 240.782 453.329 245.022C453.329 250.782 453.119 250.872 444.289 248.982C439.229 247.892 439.159 247.822 439.709 244.732C441.529 234.622 441.519 233.542 439.669 231.272C437.909 229.102 437.289 229.022 424.949 229.292L412.079 229.582L420.779 239.902L423.459 237.992C424.929 236.942 427.359 236.082 428.849 236.082C431.559 236.082 431.559 236.082 430.899 241.832C429.659 252.742 429.599 252.862 425.269 253.592C420.359 254.422 416.759 257.162 417.629 259.422C417.979 260.332 419.699 261.942 421.459 263.012C424.619 264.932 424.689 264.942 428.449 263.022C433.619 260.382 435.059 260.572 435.809 264.012C437.009 269.442 431.639 276.412 426.269 276.412C424.069 276.412 422.089 275.282 418.999 272.252C412.419 265.792 410.119 266.732 415.239 273.792C418.599 278.432 427.029 283.082 432.079 283.082C438.979 283.082 444.329 277.912 444.329 271.232C444.329 269.532 442.889 266.142 440.939 263.242L437.549 258.202L440.589 257.142C442.259 256.562 445.809 256.082 448.479 256.082H453.329V259.952C453.329 262.092 452.659 265.742 451.829 268.082C449.639 274.282 449.949 276.332 453.579 279.732C457.659 283.552 461.559 286.182 462.199 285.542C462.469 285.282 461.659 283.672 460.409 281.972ZM490.439 282.332C488.749 280.272 486.029 277.002 484.379 275.082C481.009 271.142 480.669 270.082 482.799 270.082C485.209 270.082 491.139 264.212 492.179 260.782C492.709 259.022 493.429 253.312 493.759 248.082C494.099 242.852 494.629 237.392 494.949 235.932C495.359 234.032 494.929 232.682 493.429 231.182C491.509 229.262 490.199 229.082 478.289 229.082C463.549 229.082 463.549 229.072 471.019 236.312L474.869 240.042L479.849 237.522L484.829 234.992L485.119 241.862C485.279 245.642 484.949 249.952 484.379 251.442C483.379 254.072 483.279 254.102 480.389 252.612C474.439 249.532 468.309 251.792 468.339 257.052C468.359 260.432 473.559 269.442 478.539 274.752C487.299 284.072 496.799 290.132 490.439 282.332ZM531.779 281.612C530.129 278.552 530.049 277.582 531.119 273.592C531.779 271.092 532.329 267.922 532.329 266.532C532.329 260.132 537.669 253.082 542.519 253.082C545.129 253.082 545.329 253.362 545.329 257.072C545.329 259.262 544.159 263.992 542.719 267.582C540.249 273.762 540.199 274.232 541.759 276.612C543.479 279.242 550.939 285.082 552.579 285.082C553.099 285.082 552.559 283.442 551.379 281.442L549.229 277.802L551.779 271.432C554.929 263.572 554.999 259.372 552.059 255.002C548.519 249.752 543.829 247.082 538.149 247.082C532.539 247.082 531.909 246.262 533.089 240.542C533.799 237.092 534.369 236.472 537.429 235.702C540.639 234.902 545.289 236.262 551.379 239.792C552.249 240.302 556.329 236.132 556.329 234.732C556.329 234.032 555.409 232.472 554.289 231.272C552.289 229.122 551.749 229.082 524.759 229.082H497.259L498.379 231.172C498.989 232.322 501.079 235.012 503.019 237.162L506.549 241.072L509.409 238.672C512.479 236.082 518.979 234.522 522.289 235.572C523.789 236.042 524.329 237.062 524.319 239.402C524.289 246.412 523.839 246.832 516.459 246.702C508.409 246.562 505.329 248.202 502.229 254.272C497.159 264.222 502.599 272.982 516.479 277.192C520.519 278.422 525.849 280.892 528.319 282.682C530.789 284.472 532.999 285.752 533.229 285.512C533.459 285.282 532.809 283.532 531.779 281.612ZM533.389 718.582C519.369 715.422 508.189 707.122 502.089 695.352C497.539 686.592 495.979 679.692 496.029 668.582C496.149 640.872 511.209 619.662 538.529 608.732C545.729 605.862 557.579 603.082 562.669 603.082H565.889L583.729 641.542C596.759 669.642 601.409 680.632 600.979 682.332C598.869 690.752 583.039 707.492 572.099 712.872C559.729 718.962 544.809 721.162 533.389 718.582ZM410.279 515.192C388.389 508.192 376.329 490.742 376.329 466.082C376.329 456.252 378.109 448.362 382.429 439.092C392.189 418.122 412.769 404.842 441.949 400.692L446.069 400.102L482.529 478.482L480.559 482.532C477.399 488.992 469.659 498.642 464.029 503.142C457.209 508.592 446.869 513.742 439.079 515.582C430.539 517.592 417.209 517.412 410.279 515.192ZM509.669 269.532C508.679 266.942 510.069 259.912 512.109 257.172C513.179 255.752 515.739 253.942 517.819 253.152C521.289 251.822 521.689 251.862 522.959 253.592C526.219 258.042 523.369 266.002 517.449 269.022C512.629 271.482 510.469 271.622 509.669 269.532Z" fill="#FEFEFE"/>
</g>
<defs>
<clipPath id="clip0_2962_209">
<rect width="955" height="1067" fill="white"/>
</clipPath>
</defs>
</svg>
