<svg width="2082" height="1221" viewBox="0 0 2082 1221" fill="none" xmlns="http://www.w3.org/2000/svg">
<g clip-path="url(#clip0_2962_217)">
<path d="M0 0V1221H2082V0H0ZM1162.53 664.354C1153.35 677.335 1145.96 690.906 1138.86 705.141C1132.4 718.077 1118.04 729.41 1106.36 737.745C1094.71 746.06 1084.11 755.12 1074.86 766.075L1055.96 788.47C1051.3 793.988 1047.23 799.415 1042.96 805.477C1042.29 806.419 1040.54 807.321 1039.88 806.424L1033.36 797.661C1025.43 786.978 1016.89 777.187 1008.1 767.134C997.903 755.478 986.75 745.581 974.18 736.621C961.389 727.505 948.814 717.079 941.889 702.773C923.726 665.256 899.987 634.416 864.834 610.5C899.252 587.058 922.607 557.16 940.64 520.742C947.071 505.624 960.557 493.993 973.772 484.651C987.264 475.112 999.355 464.605 1009.89 451.825L1033.29 423.44L1039.47 415.009C1039.75 414.631 1040.81 414.112 1041.22 414.228C1041.63 414.344 1042.46 414.893 1042.71 415.246C1047.5 421.903 1052.21 427.955 1057.43 434.309C1073.23 453.554 1084.94 467.704 1105.35 482.504C1118.61 492.114 1131.75 502.061 1139.51 516.816C1157.53 554.792 1181.57 586.216 1217.16 610.515C1195.35 625.335 1177.44 643.255 1162.53 664.354Z" fill="#F2EBDC"/>
<path d="M1201.52 604.881C1182.95 592.349 1167.32 576.677 1154.42 558.304C1146.62 547.192 1140.33 535.728 1134.29 523.579C1127.37 509.64 1114.25 499.859 1102.05 490.91C1084.14 477.762 1074.54 466.112 1060.62 449.17C1056.05 443.611 1051.86 438.255 1047.7 432.414C1046.06 430.106 1043.89 428.655 1041.2 428.595C1038.64 428.539 1036.18 429.925 1034.54 432.117L1026.75 442.543L1005.64 467.734C984.28 493.223 959.801 497.959 945.598 527.54C938.149 543.06 929.108 557.341 918.171 570.635C907.209 583.969 894.65 595.211 880.482 604.912C878.628 606.181 877.756 608.62 877.811 610.586C877.856 612.435 878.875 614.778 880.719 616.033C909.689 635.731 930.771 662.343 945.946 693.828C953.471 709.435 964.528 718.783 978.469 728.73C996.537 741.63 1007.22 754.324 1021.14 771.266C1025.85 776.995 1030.2 782.549 1034.5 788.57C1036.15 790.878 1038.53 792.234 1041.24 792.184C1043.67 792.138 1045.95 790.788 1047.61 788.475C1050.51 784.443 1053.16 780.795 1056.17 777.086C1072.65 756.783 1083.62 742.835 1105.26 727.47C1117.51 718.777 1128.81 708.729 1135.42 695.073C1150.98 662.933 1171.61 636.205 1201.27 616.043C1203.16 614.763 1204.16 612.501 1204.2 610.54C1204.25 608.676 1203.36 606.126 1201.52 604.881ZM1127.42 688.048C1122.54 700.42 1110.67 711.098 1099.98 718.657C1088.64 726.669 1078.45 735.351 1069.14 745.762C1059.3 756.758 1050.23 767.925 1040.98 779.948L1032.54 769.049C1025.05 759.373 1017.49 750.565 1009.21 741.852C1001.36 733.578 993.085 726.553 983.816 719.962C972.451 711.879 960.406 701.815 954.887 688.734C939.576 657.596 919.058 630.833 890.552 610.374C920.263 588.937 940.432 561.922 956.152 529.505C966.837 507.468 992.928 498.554 1012.66 475.258L1030.93 453.69L1041.01 440.774L1050.64 453.146C1056.94 461.239 1063.4 468.687 1070.3 476.286C1079.06 485.835 1088.48 493.933 1099.01 501.401C1109.9 509.121 1121.57 519.109 1126.93 531.586C1142.23 562.859 1162.67 589.698 1191.48 610.364C1162.95 630.904 1142.92 657.047 1127.42 688.048Z" fill="#F2EBDC"/>
<circle cx="1165.5" cy="610.5" r="6.5" fill="#F2EBDC"/>
<circle cx="1041.5" cy="755.5" r="6.5" fill="#F2EBDC"/>
<circle cx="916.5" cy="610.5" r="6.5" fill="#F2EBDC"/>
</g>
<defs>
<clipPath id="clip0_2962_217">
<rect width="2082" height="1221" fill="white"/>
</clipPath>
</defs>
</svg>
